<?xml version="1.0" standalone="no"?><!DOCTYPE svg PUBLIC "-//W3C//DTD SVG 1.1//EN" "http://www.w3.org/Graphics/SVG/1.1/DTD/svg11.dtd"><svg t="1587543711774" class="icon" viewBox="0 0 1024 1024" version="1.1" xmlns="http://www.w3.org/2000/svg" p-id="3394" xmlns:xlink="http://www.w3.org/1999/xlink" width="200" height="200"><defs><style type="text/css"></style></defs><path d="M504.978286 0C406.674286 0 330.215619 30.037333 275.602286 90.112 220.988952 147.456 195.047619 223.914667 195.047619 319.488h107.861333c0-66.901333 15.018667-118.784 45.056-157.013333 32.768-45.056 83.285333-66.901333 151.552-66.901334 57.344 0 102.4 15.018667 133.802667 47.786667 30.037333 30.037333 46.421333 72.362667 46.421333 126.976 0 38.229333-13.653333 73.728-40.96 107.861333-8.192 10.922667-24.576 27.306667-46.421333 49.152-73.728 65.536-118.784 117.418667-137.898667 158.378667-16.384 34.133333-24.576 73.728-24.576 118.784v31.402667h109.226667v-31.402667c0-36.864 8.192-69.632 25.941333-99.669333 13.653333-24.576 34.133333-49.152 64.170667-75.093334 60.074667-53.248 96.938667-88.746667 110.592-105.130666 34.133333-45.056 51.882667-98.304 51.882667-159.744 0-81.92-25.941333-146.090667-76.458667-192.512C661.991619 23.210667 592.359619 0 504.978286 0z m-20.48 831.488c-23.210667 0-42.325333 6.826667-58.709334 23.210667-16.384 15.018667-23.210667 34.133333-23.210666 57.344s6.826667 42.325333 23.210666 58.709333c16.384 15.018667 35.498667 23.210667 58.709334 23.210667s42.325333-8.192 58.709333-23.210667c16.384-15.018667 24.576-34.133333 24.576-58.709333 0-23.210667-8.192-42.325333-23.210667-57.344-16.384-16.384-36.864-23.210667-60.074666-23.210667z" p-id="3395" fill="#568af2"></path></svg>