<?xml version="1.0" standalone="no"?><!DOCTYPE svg PUBLIC "-//W3C//DTD SVG 1.1//EN" "http://www.w3.org/Graphics/SVG/1.1/DTD/svg11.dtd"><svg t="1587543530919" class="icon" viewBox="0 0 1024 1024" version="1.1" xmlns="http://www.w3.org/2000/svg" p-id="1966" xmlns:xlink="http://www.w3.org/1999/xlink" width="200" height="200"><defs><style type="text/css"></style></defs><path d="M426.667 85.333a85.038 85.038 0 0 0-85.334 85.334v128A85.038 85.038 0 0 0 426.667 384h42.666v85.333h-384v85.334H256V640h-42.667A85.038 85.038 0 0 0 128 725.333v128a85.038 85.038 0 0 0 85.333 85.334H384a85.038 85.038 0 0 0 85.333-85.334v-128A85.038 85.038 0 0 0 384 640h-42.667v-85.333h341.334V640H640a85.038 85.038 0 0 0-85.333 85.333v128A85.038 85.038 0 0 0 640 938.667h170.667A85.038 85.038 0 0 0 896 853.333v-128A85.038 85.038 0 0 0 810.667 640H768v-85.333h170.667v-85.334h-384V384h42.666a85.038 85.038 0 0 0 85.334-85.333v-128a85.038 85.038 0 0 0-85.334-85.334H426.667m0 85.334h170.666v128H426.667v-128M213.333 725.333H384v128H213.333v-128m426.667 0h170.667v128H640v-128z" p-id="1967" fill="#568af2"></path></svg>