<?xml version="1.0" standalone="no"?><!DOCTYPE svg PUBLIC "-//W3C//DTD SVG 1.1//EN" "http://www.w3.org/Graphics/SVG/1.1/DTD/svg11.dtd"><svg t="1587545135596" class="icon" viewBox="0 0 1532 1024" version="1.1" xmlns="http://www.w3.org/2000/svg" p-id="6116" xmlns:xlink="http://www.w3.org/1999/xlink" width="299.21875" height="200"><defs><style type="text/css"></style></defs><path d="M0 1024V0h1532.946929v1024z m1529.741205-3.137878zM6.411449 1017.622474H1526.53548V6.258795H6.411449z" fill="#231F20" p-id="6117"></path><path d="M3.205725 3.171801h1526.53548v1017.707282h-1526.53548z" fill="#DE2910" p-id="6118"></path><path d="M258.866494 118.069039l32.209899 99.139998h104.279335l-84.383489 61.332804 32.192937 99.207844-84.298682-61.332803-84.366527 61.332803 32.192937-99.207844-84.366528-61.332804h104.279335l32.260783-99.139998zM530.640694 66.25164l-2.171072 34.296164 31.836745 12.670244-33.24455 8.463791-2.238919 34.279203-18.335387-29.021136-33.244551 8.497714 21.914265-26.426025-18.267541-28.95329 31.836745 12.670245 21.914265-26.47691zM647.725966 177.400384l-15.638508 30.564633 24.221029 24.288876-33.838203-5.478567-15.740277 30.598556-5.207182-33.906049-33.923011-5.444643 30.564633-15.502816-5.207182-33.889088 24.136222 24.305837 30.632479-15.536739zM612.547804 316.484728l10.516133 32.650898 34.36401 0.033923-27.816869 20.116345 10.600941 32.701782-27.732061-20.201152-27.799908 20.150268 10.651826-32.650898-27.732062-20.150268 34.296164 0.033923 10.651826-32.684821zM530.403233 421.205062l-2.238918 34.262241 31.904591 12.704167-33.312396 8.463791-2.154112 34.279203-18.335387-29.038097-33.329358 8.463791 21.914265-26.375141-18.25058-29.038097 31.88763 12.73809 21.914265-26.459948z" fill="#FFDE00" p-id="6119"></path></svg>